<svg width="22" height="22" viewBox="0 0 22 22" fill="none" xmlns="http://www.w3.org/2000/svg">
<path d="M9.84674 1.87C8.55974 2.03775 7.04174 2.61066 5.92249 3.3605C4.99665 3.96916 3.72524 5.21216 3.8059 5.42391C3.98282 5.88316 6.81257 10.6104 6.8584 10.5224C6.89324 10.461 6.94549 10.2667 6.97115 10.0732C7.20032 8.80366 8.2774 7.59458 9.62674 7.09133C10.1474 6.88875 10.2528 6.88875 14.6638 6.84383L19.1711 6.80075L18.809 6.20858C17.5394 4.13691 15.5805 2.70783 13.1284 2.07258C12.4583 1.89566 10.5526 1.78108 9.84674 1.87091V1.87Z" fill="#000"/>
<path d="M2.93345 6.61559C2.5182 7.348 2.03237 8.82934 1.9187 9.69375C1.3797 13.6107 3.35604 17.3938 6.84945 19.1492C7.66895 19.5635 8.84229 19.9604 9.35379 20.0044L9.68012 20.031L11.2146 17.4295C12.0534 16.0004 12.7317 14.8179 12.7143 14.8005C12.696 14.7831 12.5025 14.8363 12.2734 14.9151C10.8351 15.4009 9.16862 14.9939 8.0842 13.8921C7.69554 13.5034 7.1657 12.6482 5.48087 9.72859C4.31762 7.70917 3.33862 6.05092 3.30287 6.05092C3.2772 6.05092 3.10945 6.30667 2.93345 6.61559Z" fill="#000"/>
<path d="M13.8874 8.07033C15.0076 9.20883 15.4045 10.8231 14.9104 12.2778C14.8316 12.5162 13.7994 14.3596 12.6178 16.3891C11.4353 18.4085 10.4646 20.0842 10.4646 20.1107C10.4646 20.2162 11.6819 20.163 12.4583 20.031C16.4183 19.3527 19.4003 16.3625 20.0346 12.4447C20.2729 11.0165 20.1849 9.76342 19.7532 8.31692L19.524 7.54967H13.3759L13.8865 8.07033H13.8874Z" fill="#000"/>
<path d="M9.72402 7.84942C8.79818 8.23809 8.16293 8.89167 7.81918 9.8175C7.6606 10.2328 7.63402 10.4711 7.6606 11.1228C7.6881 11.8103 7.72293 12.0056 7.97868 12.5079C8.31418 13.1954 8.86052 13.7262 9.58377 14.069C10.0073 14.2716 10.1833 14.2982 10.9954 14.2982C11.8159 14.2982 11.9827 14.2716 12.4245 14.0598C13.0772 13.761 13.7647 13.0726 14.0654 12.419C14.2762 11.979 14.3028 11.8113 14.3028 10.9908C14.3028 10.1787 14.2762 10.0027 14.0736 9.57917C13.7299 8.85684 13.2009 8.30867 12.5125 7.975C11.9919 7.71834 11.8324 7.6835 11.0825 7.656C10.3602 7.63859 10.175 7.66517 9.72585 7.85034L9.72402 7.84942Z" fill="#000"/>
</svg>
