<svg width="32" height="32" viewBox="0 0 32 32" fill="none" xmlns="http://www.w3.org/2000/svg">
<path d="M16 4C14.6815 4 13.3925 4.39099 12.2962 5.12354C11.1999 5.85608 10.3454 6.89727 9.8408 8.11544C9.33622 9.33362 9.2042 10.6741 9.46143 11.9673C9.71867 13.2605 10.3536 14.4484 11.286 15.3807C12.2183 16.3131 13.4062 16.948 14.6994 17.2052C15.9926 17.4625 17.333 17.3304 18.5512 16.8259C19.7694 16.3213 20.8106 15.4668 21.5431 14.3705C22.2757 13.2741 22.6667 11.9852 22.6667 10.6667C22.6667 8.89856 21.9643 7.20286 20.714 5.95262C19.4638 4.70238 17.7681 4 16 4V4ZM16 14.6667C15.2089 14.6667 14.4355 14.4321 13.7777 13.9925C13.1199 13.553 12.6072 12.9283 12.3045 12.1974C12.0017 11.4665 11.9225 10.6622 12.0769 9.88631C12.2312 9.11038 12.6122 8.39765 13.1716 7.83824C13.731 7.27883 14.4437 6.89787 15.2196 6.74353C15.9956 6.58919 16.7998 6.6684 17.5307 6.97115C18.2616 7.2739 18.8864 7.78659 19.3259 8.44439C19.7654 9.10218 20 9.87554 20 10.6667C20 11.7275 19.5786 12.7449 18.8284 13.4951C18.0783 14.2452 17.0609 14.6667 16 14.6667V14.6667ZM28 29.3333V28C28 25.5246 27.0167 23.1507 25.2663 21.4003C23.516 19.65 21.142 18.6667 18.6667 18.6667H13.3333C10.858 18.6667 8.48401 19.65 6.73367 21.4003C4.98333 23.1507 4 25.5246 4 28V29.3333H6.66667V28C6.66667 26.2319 7.36905 24.5362 8.61929 23.286C9.86953 22.0357 11.5652 21.3333 13.3333 21.3333H18.6667C20.4348 21.3333 22.1305 22.0357 23.3807 23.286C24.631 24.5362 25.3333 26.2319 25.3333 28V29.3333H28Z" fill="black"/>
</svg>
