<svg width="24" height="24" viewBox="0 0 24 24" fill="none" xmlns="http://www.w3.org/2000/svg">
<path d="M9.38008 21.646C10.2339 21.8796 11.1149 21.9987 12.0001 22L12.1411 21.999C12.6464 21.9927 13.142 21.8588 13.5817 21.6096C14.0214 21.3605 14.391 21.0043 14.6561 20.574C15.1981 19.698 15.2561 18.621 14.8091 17.694L14.6111 17.279C14.1581 16.337 14.5141 15.483 14.9991 14.998C15.4841 14.513 16.3401 14.157 17.2791 14.61H17.2801L17.6931 14.809C18.1472 15.0286 18.6495 15.1297 19.1533 15.103C19.657 15.0762 20.1458 14.9225 20.5741 14.656C21.0046 14.3911 21.3611 14.0215 21.6104 13.5818C21.8597 13.1421 21.9938 12.6465 22.0001 12.141C22.0126 11.209 21.8937 10.2799 21.6471 9.381C20.6091 5.554 17.2941 2.627 13.4011 2.096C10.2521 1.669 7.16008 2.698 4.93008 4.929C2.70008 7.16 1.66608 10.247 2.09608 13.4C2.62608 17.294 5.55408 20.608 9.38008 21.646V21.646ZM15.5001 6C15.8979 6 16.2794 6.15804 16.5607 6.43934C16.842 6.72065 17.0001 7.10218 17.0001 7.5C17.0001 7.89783 16.842 8.27936 16.5607 8.56066C16.2794 8.84197 15.8979 9 15.5001 9C15.1023 9 14.7207 8.84197 14.4394 8.56066C14.1581 8.27936 14.0001 7.89783 14.0001 7.5C14.0001 7.10218 14.1581 6.72065 14.4394 6.43934C14.7207 6.15804 15.1023 6 15.5001 6V6ZM10.5001 5C10.8979 5 11.2794 5.15804 11.5607 5.43934C11.842 5.72065 12.0001 6.10218 12.0001 6.5C12.0001 6.89783 11.842 7.27936 11.5607 7.56066C11.2794 7.84197 10.8979 8 10.5001 8C10.1023 8 9.72072 7.84197 9.43942 7.56066C9.15811 7.27936 9.00008 6.89783 9.00008 6.5C9.00008 6.10218 9.15811 5.72065 9.43942 5.43934C9.72072 5.15804 10.1023 5 10.5001 5ZM9.00008 15.506C9.00008 15.9038 8.84204 16.2854 8.56074 16.5667C8.27943 16.848 7.8979 17.006 7.50008 17.006C7.10225 17.006 6.72072 16.848 6.43942 16.5667C6.15811 16.2854 6.00008 15.9038 6.00008 15.506C6.00008 15.1082 6.15811 14.7266 6.43942 14.4453C6.72072 14.164 7.10225 14.006 7.50008 14.006C7.8979 14.006 8.27943 14.164 8.56074 14.4453C8.84204 14.7266 9.00008 15.1082 9.00008 15.506ZM6.50008 9.006C6.89804 9.00613 7.27964 9.16435 7.56095 9.44584C7.84225 9.72733 8.00021 10.109 8.00008 10.507C7.99995 10.905 7.84173 11.2866 7.56024 11.5679C7.27875 11.8492 6.89704 12.0071 6.49908 12.007C6.10112 12.0069 5.71952 11.8487 5.43821 11.5672C5.15691 11.2857 4.99895 10.904 4.99908 10.506C4.99921 10.108 5.15743 9.72644 5.43892 9.44513C5.72041 9.16383 6.10212 9.00587 6.50008 9.006V9.006Z" fill="#000"/>
</svg>
