<svg width="24" height="26" viewBox="0 0 24 26" fill="none" xmlns="http://www.w3.org/2000/svg">
<path d="M20.7398 8.45329C20.7543 8.6492 20.7543 8.84399 20.7543 9.03878C20.7543 15 16.2171 21.8691 7.9251 21.8691C5.37045 21.8691 2.99715 21.1291 1 19.844C1.36271 19.8854 1.71199 19.9 2.08925 19.9C4.11886 19.9049 6.09099 19.2262 7.68777 17.9733C6.74676 17.9563 5.83455 17.6458 5.07853 17.0853C4.3225 16.5247 3.76039 15.7421 3.47069 14.8466C3.74944 14.8881 4.02931 14.916 4.32261 14.916C4.72675 14.916 5.13312 14.8601 5.51038 14.7627C4.48915 14.5565 3.57085 14.0029 2.91164 13.1962C2.25243 12.3894 1.893 11.3792 1.89446 10.3374V10.2814C2.49562 10.6161 3.19306 10.8255 3.93192 10.8535C3.31294 10.4421 2.80541 9.88401 2.45458 9.22885C2.10376 8.5737 1.92056 7.84189 1.92133 7.09872C1.92133 6.26135 2.14411 5.49339 2.53481 4.82394C3.66787 6.21771 5.08106 7.35795 6.68285 8.1708C8.28464 8.98365 10.0393 9.45098 11.8332 9.54254C11.7638 9.2067 11.7212 8.85854 11.7212 8.50926C11.721 7.91701 11.8374 7.33052 12.0639 6.78329C12.2904 6.23607 12.6225 5.73886 13.0413 5.32008C13.4601 4.90129 13.9573 4.56916 14.5045 4.34265C15.0518 4.11614 15.6383 3.99971 16.2305 4C17.5291 4 18.7012 4.54407 19.5251 5.42398C20.5347 5.22876 21.5027 4.86023 22.3865 4.33472C22.05 5.37675 21.3451 6.26034 20.4039 6.81997C21.2993 6.71785 22.1743 6.48239 23 6.12141C22.3833 7.02046 21.6191 7.80885 20.7398 8.45329Z" fill="#000"/>
</svg>
